<?xml version="1.0" encoding="utf-8"?>
<!-- Generator: Adobe Illustrator 16.0.0, SVG Export Plug-In . SVG Version: 6.00 Build 0)  -->
<!DOCTYPE svg PUBLIC "-//W3C//DTD SVG 1.1//EN" "http://www.w3.org/Graphics/SVG/1.1/DTD/svg11.dtd">
<svg version="1.1" id="Layer_1" xmlns="http://www.w3.org/2000/svg" xmlns:xlink="http://www.w3.org/1999/xlink" x="0px" y="0px"
	 width="70px" height="70px" viewBox="169.801 169.801 70 70" enable-background="new 169.801 169.801 70 70" xml:space="preserve">
<g>
	<path fill="#937441" d="M215.634,226.467h-23.333c-0.459,0-0.833,0.373-0.833,0.833v1.667c0,0.46,0.374,0.834,0.833,0.834
		c0.46,0,0.834-0.374,0.834-0.834v-0.834h22.5c0.46,0,0.834-0.372,0.834-0.833C216.468,226.84,216.094,226.467,215.634,226.467"/>
	<path fill="#937441" d="M198.135,200.635c0,0.459,0.373,0.832,0.833,0.832h3.333c0.46,0,0.833-0.373,0.833-0.832v-5.001
		c0-0.46-0.374-0.833-0.833-0.833h-3.333c-0.459,0-0.833,0.373-0.833,0.833V200.635z M199.801,196.468h1.666v3.333h-1.666V196.468z"
		/>
	<path fill="#937441" d="M190.635,189.801h-10c-0.46,0-0.834,0.373-0.834,0.833v16.667c0,0.46,0.374,0.832,0.834,0.832
		c0.459,0,0.833-0.372,0.833-0.832v-15.833h9.167c0.46,0,0.833-0.374,0.833-0.834S191.094,189.801,190.635,189.801"/>
	<path fill="#937441" d="M219.801,220.633c0,0.46,0.373,0.835,0.833,0.835h3.334c0.459,0,0.833-0.375,0.833-0.835v-5
		c0-0.459-0.374-0.833-0.833-0.833h-3.334c-0.46,0-0.833,0.374-0.833,0.833V220.633z M221.468,216.468h1.666v3.332h-1.666V216.468z"
		/>
	<path fill="#937441" d="M183.968,209.801c-4.119,0-4.167,10.725-4.167,10.832c0,2.013,1.435,3.696,3.333,4.083v4.251
		c0,0.46,0.373,0.833,0.833,0.833c0.46,0,0.833-0.373,0.833-0.833v-4.251c1.899-0.387,3.333-2.07,3.333-4.083
		C188.135,220.526,188.087,209.801,183.968,209.801 M183.968,223.134c-1.378,0-2.5-1.122-2.5-2.501c0-4.15,1.116-9.165,2.5-9.165
		s2.5,5.015,2.5,9.165C186.468,222.012,185.346,223.134,183.968,223.134"/>
	<path fill="#937441" d="M188.968,204.801h-3.333c-0.46,0-0.833,0.373-0.833,0.832v1.668c0,0.46,0.374,0.832,0.833,0.832
		s0.833-0.373,0.833-0.832v-0.833h1.667v4.165c0,0.461,0.374,0.835,0.833,0.835c0.459,0,0.833-0.374,0.833-0.835v-4.999
		C189.802,205.174,189.428,204.801,188.968,204.801"/>
	<path fill="#937441" d="M220.634,201.467h3.334c0.459,0,0.833-0.373,0.833-0.832v-5.001c0-0.46-0.374-0.833-0.833-0.833h-3.334
		c-0.46,0-0.833,0.373-0.833,0.833v5.001C219.801,201.094,220.174,201.467,220.634,201.467 M221.468,196.468h1.666v3.333h-1.666
		V196.468z"/>
	<path fill="#937441" d="M188.968,194.801h-3.333c-0.46,0-0.833,0.373-0.833,0.833v5.001c0,0.459,0.374,0.832,0.833,0.832h3.333
		c0.459,0,0.833-0.373,0.833-0.832v-5.001C189.802,195.174,189.428,194.801,188.968,194.801 M188.135,199.801h-1.667v-3.333h1.667
		V199.801z"/>
	<path fill="#937441" d="M206.468,200.635c0,0.459,0.373,0.832,0.833,0.832h3.333c0.46,0,0.834-0.373,0.834-0.832v-5.001
		c0-0.46-0.374-0.833-0.834-0.833h-3.333c-0.461,0-0.833,0.373-0.833,0.833V200.635z M208.134,196.468h1.667v3.333h-1.667V196.468z"
		/>
	<path fill="#937441" d="M228.968,189.801h-10c-0.46,0-0.834,0.373-0.834,0.833s0.374,0.834,0.834,0.834h9.166v33.486
		c-0.261-0.093-0.538-0.154-0.833-0.154c-0.144,0-0.287,0.013-0.428,0.037c-0.575-1.035-1.67-1.703-2.905-1.703
		s-2.33,0.668-2.905,1.703c-0.142-0.024-0.284-0.037-0.429-0.037c-1.378,0-2.5,1.121-2.5,2.501c0,1.378,1.122,2.499,2.5,2.499h6.667
		c1.378,0,2.5-1.121,2.5-2.499v-36.667C229.801,190.174,229.427,189.801,228.968,189.801 M227.301,228.133h-6.667
		c-0.459,0-0.833-0.373-0.833-0.832c0-0.46,0.374-0.834,0.833-0.834c0.16,0,0.312,0.045,0.452,0.137
		c0.228,0.146,0.514,0.172,0.765,0.07c0.252-0.101,0.438-0.319,0.498-0.583c0.176-0.76,0.843-1.29,1.619-1.29s1.441,0.53,1.617,1.29
		c0.063,0.264,0.248,0.482,0.499,0.583c0.251,0.102,0.536,0.076,0.765-0.07c0.543-0.351,1.285,0.078,1.285,0.697
		C228.134,227.76,227.76,228.133,227.301,228.133"/>
	<path fill="#937441" d="M207.301,191.468h3.333c0.46,0,0.834-0.374,0.834-0.834v-4.999c0-0.461-0.374-0.834-0.834-0.834h-3.333
		c-0.461,0-0.833,0.373-0.833,0.834v4.999C206.468,191.094,206.841,191.468,207.301,191.468 M208.134,186.467h1.667v3.334h-1.667
		V186.467z"/>
	<path fill="#937441" d="M206.468,210.633c0,0.46,0.373,0.835,0.833,0.835h3.333c0.46,0,0.834-0.375,0.834-0.835v-5
		c0-0.46-0.374-0.832-0.834-0.832h-3.333c-0.461,0-0.833,0.373-0.833,0.832V210.633z M208.134,206.468h1.667v3.333h-1.667V206.468z"
		/>
	<path fill="#937441" d="M198.968,191.468h3.333c0.46,0,0.833-0.374,0.833-0.834v-4.999c0-0.461-0.374-0.834-0.833-0.834h-3.333
		c-0.459,0-0.833,0.373-0.833,0.834v4.999C198.135,191.094,198.508,191.468,198.968,191.468 M199.801,186.467h1.666v3.334h-1.666
		V186.467z"/>
	<path fill="#937441" d="M204.209,220.042c-0.15,0.158-0.242,0.375-0.242,0.591c0,0.218,0.092,0.435,0.242,0.593
		c0.158,0.149,0.375,0.242,0.592,0.242c0.216,0,0.433-0.093,0.592-0.242c0.149-0.158,0.241-0.375,0.241-0.593
		c0-0.216-0.092-0.433-0.241-0.591C205.076,219.735,204.526,219.735,204.209,220.042"/>
	<path fill="#937441" d="M198.135,210.633c0,0.46,0.373,0.835,0.833,0.835h3.333c0.46,0,0.833-0.375,0.833-0.835v-5
		c0-0.46-0.374-0.832-0.833-0.832h-3.333c-0.459,0-0.833,0.373-0.833,0.832V210.633z M199.801,206.468h1.666v3.333h-1.666V206.468z"
		/>
	<path fill="#937441" d="M196.468,215.633c0,0.46,0.374,0.834,0.833,0.834h2.5v7.5c0,0.46,0.373,0.833,0.834,0.833
		c0.459,0,0.832-0.373,0.832-0.833v-7.5h6.667v7.5c0,0.46,0.374,0.833,0.834,0.833c0.459,0,0.832-0.373,0.832-0.833v-7.5h2.5
		c0.461,0,0.834-0.374,0.834-0.834c0-0.459-0.373-0.833-0.834-0.833h-14.999C196.841,214.8,196.468,215.174,196.468,215.633"/>
	<path fill="#937441" d="M219.801,210.633c0,0.46,0.373,0.835,0.833,0.835h3.334c0.459,0,0.833-0.375,0.833-0.835v-5
		c0-0.46-0.374-0.832-0.833-0.832h-3.334c-0.46,0-0.833,0.373-0.833,0.832V210.633z M221.468,206.468h1.666v3.333h-1.666V206.468z"
		/>
	<path fill="#937441" d="M215.634,179.801h-21.667c-0.459,0-0.833,0.373-0.833,0.834v43.332c0,0.46,0.374,0.834,0.833,0.834
		c0.46,0,0.833-0.374,0.833-0.834v-42.5h20v42.5c0,0.46,0.373,0.834,0.833,0.834s0.834-0.374,0.834-0.834v-43.332
		C216.468,180.174,216.094,179.801,215.634,179.801"/>
</g>
</svg>
