<?xml version="1.0" encoding="utf-8"?>
<!-- Generator: Adobe Illustrator 16.0.0, SVG Export Plug-In . SVG Version: 6.00 Build 0)  -->
<!DOCTYPE svg PUBLIC "-//W3C//DTD SVG 1.1//EN" "http://www.w3.org/Graphics/SVG/1.1/DTD/svg11.dtd">
<svg version="1.1" id="Layer_1" xmlns="http://www.w3.org/2000/svg" xmlns:xlink="http://www.w3.org/1999/xlink" x="0px" y="0px"
	 width="70px" height="70px" viewBox="169.801 169.801 70 70" enable-background="new 169.801 169.801 70 70" xml:space="preserve">
<g>
	<path fill="#92723F" d="M219.225,179.801h-28.846c-2.645,0-4.809,2.163-4.809,4.807v34.615c0,1.491,0.817,2.741,1.972,3.606
		c0,0.048-0.049,0.144-0.049,0.24v3.365c0,1.875,1.491,3.366,3.366,3.366h0.961c1.875,0,3.365-1.491,3.365-3.366v-2.404h19.231
		v2.404c0,1.875,1.49,3.366,3.365,3.366h0.961c1.875,0,3.366-1.491,3.366-3.366v-3.365c1.153-0.865,1.922-2.26,1.922-3.847v-34.615
		C224.031,181.964,221.868,179.801,219.225,179.801 M193.264,226.435c0,0.817-0.625,1.442-1.443,1.442h-0.961
		c-0.817,0-1.442-0.625-1.442-1.442v-2.644c0.48,0.144,0.962,0.239,1.442,0.239h2.404V226.435z M220.187,226.435
		c0,0.817-0.625,1.442-1.443,1.442h-0.961c-0.817,0-1.442-0.625-1.442-1.442v-2.404h2.885c0.337,0,0.673-0.048,0.962-0.096V226.435z
		 M222.11,219.223c0,1.587-1.298,2.885-2.885,2.885H190.86c-1.539,0-3.366-1.298-3.366-2.885v-8.653h34.616V219.223z
		 M222.11,208.647h-34.616v-19.23h34.616V208.647z M222.11,187.493h-34.616v-2.885c0-1.586,1.299-2.884,2.886-2.884h28.846
		c1.587,0,2.885,1.298,2.885,2.884V187.493z"/>
	<path fill="#92723F" d="M202.879,183.647h-6.25c-0.529,0-0.962,0.433-0.962,0.961c0,0.529,0.433,0.961,0.962,0.961h6.25
		c0.528,0,0.961-0.432,0.961-0.961C203.84,184.08,203.407,183.647,202.879,183.647"/>
	<path fill="#92723F" d="M208.648,183.647h-1.442c-0.528,0-0.961,0.433-0.961,0.961c0,0.529,0.433,0.961,0.961,0.961h1.442
		c0.529,0,0.961-0.432,0.961-0.961C209.609,184.08,209.177,183.647,208.648,183.647"/>
	<path fill="#92723F" d="M192.781,218.743c1.587,0,2.886-1.299,2.886-2.886c0-1.586-1.299-2.884-2.886-2.884
		c-1.586,0-2.884,1.298-2.884,2.884C189.898,217.445,191.196,218.743,192.781,218.743 M192.781,214.897
		c0.53,0,0.962,0.433,0.962,0.961c0,0.529-0.432,0.962-0.962,0.962c-0.527,0-0.961-0.433-0.961-0.962
		C191.821,215.329,192.254,214.897,192.781,214.897"/>
	<path fill="#92723F" d="M216.821,218.743c1.587,0,2.885-1.299,2.885-2.886c0-1.586-1.298-2.884-2.885-2.884
		c-1.586,0-2.885,1.298-2.885,2.884C213.936,217.445,215.235,218.743,216.821,218.743 M216.821,214.897
		c0.529,0,0.962,0.433,0.962,0.961c0,0.529-0.433,0.962-0.962,0.962c-0.528,0-0.961-0.433-0.961-0.962
		C215.86,215.329,216.292,214.897,216.821,214.897"/>
</g>
</svg>
