<?xml version="1.0" encoding="utf-8"?>
<!-- Generator: Adobe Illustrator 16.0.0, SVG Export Plug-In . SVG Version: 6.00 Build 0)  -->
<!DOCTYPE svg PUBLIC "-//W3C//DTD SVG 1.1//EN" "http://www.w3.org/Graphics/SVG/1.1/DTD/svg11.dtd">
<svg version="1.1" id="Layer_1" xmlns="http://www.w3.org/2000/svg" xmlns:xlink="http://www.w3.org/1999/xlink" x="0px" y="0px"
	 width="70px" height="70px" viewBox="169.801 169.801 70 70" enable-background="new 169.801 169.801 70 70" xml:space="preserve">
<g>
	<rect x="169.801" y="221.229" fill="#92723F" width="70" height="2.145"/>
	<rect x="169.801" y="195.359" fill="#92723F" width="2.283" height="2.143"/>
	<path fill="#92723F" d="M234.417,207.793l-8.821-8.821c-2.33-2.33-5.427-3.612-8.72-3.612h-42.51v2.143h30.942
		c0.538,5.122,4.881,9.13,10.145,9.13h14.774l2.676,2.676c0.813,0.813,1.262,1.896,1.262,3.047s-0.448,2.23-1.262,3.047
		c-0.815,0.813-1.898,1.262-3.048,1.262h-44.837v2.143h44.837c1.723,0,3.343-0.67,4.561-1.891c1.222-1.219,1.892-2.838,1.892-4.561
		C236.307,210.631,235.635,209.012,234.417,207.793 M215.452,204.49c-4.079,0-7.462-3.049-7.988-6.988h9.412
		c2.721,0,5.28,1.061,7.203,2.985l4.005,4.003H215.452z"/>
	<path fill="#92723F" d="M193.077,206.633h9.752v-6.708h-9.752V206.633z M200.686,204.49h-5.466v-2.423h5.466V204.49z"/>
	<path fill="#92723F" d="M180.904,206.633h9.75v-6.708h-9.75V206.633z M188.512,204.49h-5.466v-2.423h5.466V204.49z"/>
	<polygon fill="#92723F" points="169.801,199.925 169.801,202.067 176.338,202.067 176.338,204.49 169.801,204.49 169.801,206.633 
		178.481,206.633 178.481,199.925 	"/>
	<rect x="174.366" y="216.664" fill="#92723F" width="7.608" height="2.143"/>
	<rect x="169.801" y="216.664" fill="#92723F" width="2.283" height="2.143"/>
	<rect x="178.931" y="212.1" fill="#92723F" width="13.696" height="2.143"/>
	<rect x="174.366" y="212.1" fill="#92723F" width="2.283" height="2.143"/>
	<rect x="195.671" y="190.795" fill="#92723F" width="13.695" height="2.143"/>
	<rect x="191.105" y="190.795" fill="#92723F" width="2.283" height="2.143"/>
	<rect x="188.063" y="186.229" fill="#92723F" width="9.13" height="2.143"/>
	<rect x="183.497" y="186.229" fill="#92723F" width="2.282" height="2.143"/>
	<rect x="218.435" y="209.055" fill="#92723F" width="2.144" height="2.143"/>
	<rect x="214.15" y="209.055" fill="#92723F" width="2.143" height="2.143"/>
	<rect x="227.007" y="209.055" fill="#92723F" width="2.143" height="2.143"/>
	<rect x="222.721" y="209.055" fill="#92723F" width="2.143" height="2.143"/>
</g>
</svg>
