<?xml version="1.0" encoding="utf-8"?>
<!-- Generator: Adobe Illustrator 16.0.0, SVG Export Plug-In . SVG Version: 6.00 Build 0)  -->
<!DOCTYPE svg PUBLIC "-//W3C//DTD SVG 1.1//EN" "http://www.w3.org/Graphics/SVG/1.1/DTD/svg11.dtd">
<svg version="1.1" id="Layer_1" xmlns="http://www.w3.org/2000/svg" xmlns:xlink="http://www.w3.org/1999/xlink" x="0px" y="0px"
	 width="70px" height="70px" viewBox="169.801 169.801 70 70" enable-background="new 169.801 169.801 70 70" xml:space="preserve">
<g>
	<path fill="#937441" d="M183.301,205.36l0.419,1.889l-1.935,0.43l-0.421-1.889L183.301,205.36z"/>
	<path fill="#937441" d="M228.994,203.015v-4.988h-6.773v1.319l-10.646-5.766v-7.559c0-0.444-0.043-0.891-0.131-1.329l-1.064-5.318
		c-0.529-2.65-2.876-4.573-5.578-4.573c-2.704,0-5.048,1.923-5.579,4.573l-1.064,5.319c-0.086,0.437-0.131,0.883-0.131,1.328v7.559
		l-10.646,5.766v-1.319h-6.774v4.988l-5.806,3.146v5.415h2.019l21.208-3.688v7.661c0,2.364,0.361,4.697,1.04,6.955l-9.75,6.961
		v5.337h2.054l10.86-2.717l0.905,2.717h3.329l0.904-2.717l10.744,2.688l2.172,0.029v-5.337l-9.75-6.962
		c0.677-2.258,1.039-4.59,1.039-6.954v-7.661l21.125,3.672l2.102,0.017v-5.415L228.994,203.015z M182.542,199.962h2.904v0.432
		l-2.904,1.572V199.962z M198.028,202.088l-12.791,2.843l0.419,1.891l12.372-2.75v1.85l-21.291,3.703v-2.313l21.291-11.533V202.088
		L198.028,202.088z M191.253,232.836v-2.376l8.429-6.019l1.935,5.805L191.253,232.836z M205.072,232.865h-0.541l-3.426-10.279
		c-0.758-2.273-1.143-4.642-1.143-7.038v-29.527c0-0.318,0.031-0.637,0.094-0.949l1.065-5.317c0.349-1.749,1.896-3.019,3.68-3.019
		c1.783,0,3.33,1.27,3.682,3.018l1.064,5.316c0.063,0.313,0.093,0.633,0.093,0.951v29.527c0,2.397-0.385,4.767-1.143,7.038
		L205.072,232.865z M218.349,230.46v2.376l-10.364-2.592l1.936-5.804L218.349,230.46z M224.156,199.962h2.904v2.004l-2.904-1.572
		V199.962z M232.865,209.625l-21.291-3.703v-1.85l12.371,2.75l0.42-1.889l-12.791-2.842v-6.31l21.291,11.533V209.625z"/>
	<path fill="#937441" d="M226.304,205.36l1.936,0.431l-0.419,1.889l-1.937-0.43L226.304,205.36z"/>
</g>
</svg>
